<svg version="1.1" viewBox="0.0 0.0 1024.0 1024.0" fill="none" stroke="none" stroke-linecap="square" stroke-miterlimit="10" xmlns:xlink="http://www.w3.org/1999/xlink" xmlns="http://www.w3.org/2000/svg"><clipPath id="p.0"><path d="m0 0l1024.0 0l0 1024.0l-1024.0 0l0 -1024.0z" clip-rule="nonzero"/></clipPath><g clip-path="url(#p.0)"><path fill="#000000" fill-opacity="0.0" d="m0 0l1024.0 0l0 1024.0l-1024.0 0z" fill-rule="evenodd"/><path fill="#000000" d="m157.94518 487.7564l313.7008 -120.409424l32.31494 84.25195l-313.70078 120.409424z" fill-rule="evenodd"/><path fill="#000000" d="m551.9934 408.03708l56.094482 209.19687l-140.78738 37.637756l-56.094482 -209.19684z" fill-rule="evenodd"/><path fill="#000000" d="m430.56183 420.10464l0 0c3.131073 -34.23297 33.420593 -59.446045 67.653534 -56.314972l0 0c16.43924 1.5036011 31.60788 9.476074 42.168976 22.163574c10.561157 12.6875 15.649597 29.05072 14.145996 45.48996l0 0c-3.1310425 34.23297 -33.420593 59.446045 -67.653534 56.314972l0 0c-34.23297 -3.131073 -59.446014 -33.420593 -56.314972 -67.653534z" fill-rule="evenodd"/><path fill="#000000" d="m176.14658 521.42017l310.89764 -87.55908l20.346466 72.409454l-310.89764 87.55905z" fill-rule="evenodd"/><path fill="#000000" d="m434.9409 532.7773l397.38583 -106.48819l32.59845 122.078705l-397.38586 106.48822z" fill-rule="evenodd"/></g></svg>